<svg xmlns="http://www.w3.org/2000/svg" xmlns:xlink="http://www.w3.org/1999/xlink" viewBox="0,0,256,256" width="48px" height="48px"><g fill="#39ff14" fill-rule="nonzero" stroke="none" stroke-width="1" stroke-linecap="butt" stroke-linejoin="miter" stroke-miterlimit="10" stroke-dasharray="" stroke-dashoffset="0" font-family="none" font-weight="none" font-size="none" text-anchor="none" style="mix-blend-mode: normal"><g transform="scale(5.33333,5.33333)"><path d="M8.895,25.365l-4.237,3.874c-0.9,0.83 -0.849,2.267 0.107,3.032c0,0 1.324,1.232 1.803,1.574c0.736,0.525 1.703,0.585 2.432,0.051l5.057,-3.823z"></path><path d="M29.344,6.685c-3.977,3.629 -13.659,12.472 -13.659,12.472l-5.297,4.843l-0.011,0.01l5.303,4.837l0.005,-0.003l6.408,-4.844l8.907,-6.732l0.016,-9.84c0.001,-0.87 -1.029,-1.329 -1.672,-0.743z"></path><path d="M29.326,41.289c0.642,0.585 1.674,0.13 1.674,-0.739v-9.817l-8.907,-6.733v0l-6.407,-4.843v0l-6.686,-5.053c-0.729,-0.534 -1.696,-0.474 -2.432,0.051c-0.479,0.342 -1.803,1.574 -1.803,1.574c-0.956,0.765 -1.007,2.202 -0.107,3.032l5.73,5.239v0l5.297,4.843v0z"></path><path d="M42.02,8.29l-8.82,-4.14l0.001,0.009c-0.478,-0.2 -1.067,-0.129 -1.476,0.334l-0.053,0.048c0.02,0.017 0.041,0.031 0.059,0.05c0.998,-0.467 2.269,0.225 2.269,1.45v8.959v18v8.947c0,1.259 -1.344,1.958 -2.355,1.405c-0.017,0.012 -0.034,0.024 -0.051,0.035l0.132,0.12c0.409,0.463 0.998,0.533 1.476,0.334l-0.002,0.009l8.82,-4.14c1.19,-0.42 1.98,-1.55 1.98,-2.82v-25.78c0,-1.27 -0.79,-2.4 -1.98,-2.82z"></path></g></g></svg>